Coordinates
version=1
nRows=9
nColumns=24
inDegrees=yes

Units are S.I. units (second, meters, Newtons, ...)
Angles are in degrees.

endheader
time	pelvis_tilt	pelvis_list	pelvis_rotation	pelvis_tx	pelvis_ty	pelvis_tz	hip_flexion_r	hip_adduction_r	hip_rotation_r	knee_angle_r	ankle_angle_r	subtalar_angle_r	mtp_angle_r	hip_flexion_l	hip_adduction_l	hip_rotation_l	knee_angle_l	ankle_angle_l	subtalar_angle_l	mtp_angle_l	lumbar_extension	lumbar_bending	lumbar_rotation
      1.53000000	    -10.60614185	     -0.74388346	      0.52568776	     -0.11437779	      1.27894646	     -0.89554426	     35.54413697	      3.80634071	      2.29334175	    -38.46649929	      4.67874680	    -15.77616977	      4.76319196	      3.41847197	      6.57585853	     12.70608531	     -0.95410414	      1.80282222	    -21.51159760	      2.08518123	      1.89158497	      2.39753816	     -3.54337823
      1.53500000	    -10.53999578	     -0.72160176	      0.46900012	     -0.10841855	      1.27834860	     -0.89515467	     35.56001107	      3.95962915	      3.03840970	    -36.80954500	      4.46034377	    -16.39997081	      4.59998121	      2.80938089	      6.55698167	     12.55986675	     -0.79626612	      2.23624871	    -21.26867732	      2.24383993	      1.86401294	      2.40264135	     -3.63869113
      1.54000000	    -10.48865200	     -0.71441239	      0.44835650	     -0.10254718	      1.27773010	     -0.89482266	     35.54973018	      4.08198357	      3.75676645	    -35.08234966	      4.26422749	    -16.92417160	      4.42355628	      2.27839955	      6.53984496	     12.43222883	     -0.74445862	      2.65639095	    -21.06529127	      2.38221891	      1.85044547	      2.41499720	     -3.67088367
      1.54500000	    -10.46159042	     -0.69677328	      0.45554138	     -0.09673711	      1.27704589	     -0.89451278	     35.54626506	      4.15877323	      4.46468723	    -33.33431553	      4.06014133	    -17.44122134	      4.21114776	      1.79070104	      6.53771412	     12.33990717	     -0.71408097	      3.10039276	    -20.82282129	      2.52672520	      1.84715164	      2.41498053	     -3.77377447
      1.55000000	    -10.46615990	     -0.66137778	      0.47188391	     -0.09099896	      1.27628274	     -0.89418267	     35.56386582	      4.20099705	      5.19929546	    -31.57630820	      3.84949141	    -17.94884981	      3.92332743	      1.35071261	      6.55275401	     12.22085327	     -0.69250894	      3.58160950	    -20.47719742	      2.70558314	      1.86536251	      2.39702397	     -3.90951525
      1.55500000	    -10.47337076	     -0.63984667	      0.53632593	     -0.08536123	      1.27551732	     -0.89395969	     35.55124084	      4.18868137	      5.84969637	    -29.77352909	      3.66779065	    -18.30286869	      3.65281646	      0.96366612	      6.57006893	     12.19618274	     -0.75418750	      4.03028475	    -20.25926149	      2.83974817	      1.87674256	      2.39475801	     -4.04607881
      1.56000000	    -10.48976496	     -0.62010235	      0.65090274	     -0.07984373	      1.27471881	     -0.89383955	     35.53223327	      4.11054316	      6.41222949	    -27.95752897	      3.50504860	    -18.49694390	      3.42326864	      0.64150691	      6.60191287	     12.25698679	     -0.90422263	      4.47121127	    -20.14746520	      2.94309082	      1.88300574	      2.39183035	     -4.17365356
      1.56500000	    -10.54280374	     -0.56749756	      0.73498196	     -0.07435484	      1.27383961	     -0.89358297	     35.53000356	      4.02787510	      7.09050787	    -26.12777888	      3.31550358	    -18.74835144	      3.00034732	      0.34793717	      6.65435547	     12.20201077	     -1.02209414	      4.92652357	    -19.83539811	      3.13100217	      1.91962421	      2.35054515	     -4.32609441
      1.57000000	    -10.60131796	     -0.52617666	      0.91051263	     -0.06897383	      1.27294099	     -0.89353308	     35.50698321	      3.84828398	      7.59872934	    -24.27659875	      3.16718056	    -18.72486952	      2.76331375	      0.10364506	      6.71517533	     12.37336550	     -1.20780346	      5.34891176	    -19.74770884	      3.22885765	      1.94445404	      2.32793867	     -4.57289800
